HIERARCHY
ROOT root
{
	OFFSET 0.000000 0.000000 0.000000
	CHANNELS 6 Xposition Yposition Zposition Zrotation Yrotation Xrotation
	JOINT lhip
	{
		OFFSET 0.058581 -0.082280 -0.017664
		CHANNELS 3 Zrotation Yrotation Xrotation
		JOINT lknee
		{
			OFFSET 0.043451 -0.386469 0.008037
			CHANNELS 3 Zrotation Yrotation Xrotation
			JOINT lankle
			{
				OFFSET -0.014790 -0.426874 -0.037428
				CHANNELS 3 Zrotation Yrotation Xrotation
				JOINT ltoe
				{
					OFFSET 0.041054 -0.060286 0.122042
					CHANNELS 3 Zrotation Yrotation Xrotation
					End Site
					{
						OFFSET 0.000000 0.000000 0.000000
					}
				}
			}
		}
	}
	JOINT rhip
	{
		OFFSET -0.060310 -0.090513 -0.013543
		CHANNELS 3 Zrotation Yrotation Xrotation
		JOINT rknee
		{
			OFFSET -0.043257 -0.383688 -0.004843
			CHANNELS 3 Zrotation Yrotation Xrotation
			JOINT rankle
			{
				OFFSET 0.019056 -0.420046 -0.034562
				CHANNELS 3 Zrotation Yrotation Xrotation
				JOINT rtoe
				{
					OFFSET -0.034840 -0.062106 0.130323
					CHANNELS 3 Zrotation Yrotation Xrotation
					End Site
					{
						OFFSET 0.000000 0.000000 0.000000
					}
				}
			}
		}
	}
	JOINT lowerback
	{
		OFFSET 0.004439 0.124404 -0.038385
		CHANNELS 3 Zrotation Yrotation Xrotation
		JOINT upperback
		{
			OFFSET 0.004488 0.137956 0.026820
			CHANNELS 3 Zrotation Yrotation Xrotation
			JOINT chest
			{
				OFFSET -0.002265 0.056032 0.002855
				CHANNELS 3 Zrotation Yrotation Xrotation
				JOINT lowerneck
				{
					OFFSET -0.013390 0.211636 -0.033468
					CHANNELS 3 Zrotation Yrotation Xrotation
					JOINT upperneck
					{
						OFFSET 0.010113 0.088937 0.050410
						CHANNELS 3 Zrotation Yrotation Xrotation
						End Site
						{
							OFFSET 0.000000 0.000000 0.000000
						}
					}
				}
				JOINT lclavicle
				{
					OFFSET 0.071702 0.114000 -0.018898
					CHANNELS 3 Zrotation Yrotation Xrotation
					JOINT lshoulder
					{
						OFFSET 0.122921 0.045205 -0.019046
						CHANNELS 3 Zrotation Yrotation Xrotation
						JOINT lelbow
						{
							OFFSET 0.255332 -0.015649 -0.022946
							CHANNELS 3 Zrotation Yrotation Xrotation
							JOINT lwrist
							{
								OFFSET 0.265709 0.012698 -0.007375
								CHANNELS 3 Zrotation Yrotation Xrotation
								End Site
								{
									OFFSET 0.000000 0.000000 0.000000
								}
							}
						}
					}
				}
				JOINT rclavicle
				{
					OFFSET -0.082954 0.112472 -0.023707
					CHANNELS 3 Zrotation Yrotation Xrotation
					JOINT rshoulder
					{
						OFFSET -0.113228 0.046853 -0.008472
						CHANNELS 3 Zrotation Yrotation Xrotation
						JOINT relbow
						{
							OFFSET -0.260127 -0.014369 -0.031269
							CHANNELS 3 Zrotation Yrotation Xrotation
							JOINT rwrist
							{
								OFFSET -0.269108 0.006794 -0.006027
								CHANNELS 3 Zrotation Yrotation Xrotation
								End Site
								{
									OFFSET 0.000000 0.000000 0.000000
								}
							}
						}
					}
				}
			}
		}
	}
}
MOTION
Frames: 13
Frame Time: 0.033333
-1.791267 0.597751 0.993179 89.544362 -2.237675 84.564985 -3.620374 -1.939648 6.520181 -1.808092 -10.499219 0.336514 2.027099 7.603931 -9.389178 0.000000 -0.000000 0.000000 0.552506 -2.944911 5.432117 -1.541340 0.419519 3.702417 1.837724 -7.031141 -10.989197 0.000000 -0.000000 0.000000 -0.297825 2.849901 -0.965010 -0.333653 -3.059414 10.143312 -1.886372 -0.804521 -3.196985 0.333251 0.311574 4.407250 5.445635 1.117397 2.154363 -27.961831 0.960032 2.835641 -54.510558 -3.348242 12.500487 6.942038 -24.893189 3.970675 -20.968746 -14.485619 1.541525 23.950286 2.367474 3.482007 61.258329 -3.127769 11.196697 -15.299712 18.250214 -5.922757 20.503946 15.190514 -11.090593 
-1.790351 0.597717 0.993210 89.698201 -2.200131 84.569208 -3.587882 -1.956581 6.512686 -1.834397 -10.682650 0.455656 1.907183 7.715941 -9.450404 0.000000 -0.000000 0.000000 0.620861 -2.955638 5.493432 -1.585303 0.533492 3.680442 2.073531 -7.199313 -11.137623 0.000000 -0.000000 0.000000 -0.070541 2.825686 -0.990144 -0.567954 -2.898497 9.655866 -1.820813 -0.602349 -2.718076 0.330808 1.371688 3.888041 5.260726 2.400788 2.259765 -27.684232 0.731301 2.905823 -54.579357 -3.147218 12.367934 6.968792 -24.452395 4.268561 -20.888138 -14.282058 1.160757 23.879069 2.238709 3.735564 61.479110 -3.221400 10.997126 -15.664298 18.218976 -6.307438 20.494570 15.311779 -11.592530 
-1.789782 0.597623 0.993331 89.957269 -2.191130 84.626014 -3.570128 -1.973179 6.390738 -1.732609 -10.756461 0.472123 2.167440 7.376128 -9.685539 0.000000 -0.000000 0.000000 0.664937 -3.116518 5.401089 -1.662706 0.486317 3.867456 1.975848 -7.095623 -11.196517 0.000000 -0.000000 0.000000 0.067502 2.848857 -1.054619 -0.658468 -2.770482 9.686444 -1.895203 -0.575119 -2.836183 0.308239 2.173722 3.517496 4.913585 3.132785 2.401396 -27.586693 0.801416 2.882073 -54.332218 -3.032935 12.379960 7.175685 -24.259846 4.718644 -21.674298 -14.530957 1.318107 23.587301 1.929690 3.703569 61.945915 -3.282239 10.835996 -15.937635 17.784962 -6.187166 21.777833 15.330967 -12.642611 
-1.789188 0.597720 0.993293 90.283086 -2.266302 84.675444 -3.616651 -2.036317 6.336613 -1.760815 -10.863678 0.486721 2.167231 7.261075 -9.714184 0.000000 -0.000000 0.000000 0.586897 -3.239880 5.364772 -1.668669 0.331941 3.921534 1.935239 -7.120777 -11.315887 0.000000 -0.000000 0.000000 0.065658 2.917066 -1.036655 -0.720665 -2.718867 9.356092 -1.874388 -0.587538 -2.744624 0.103031 2.365163 3.272986 4.651124 3.443980 2.506278 -27.525965 0.757732 2.939047 -54.078262 -2.829418 12.178930 7.419059 -24.179045 4.264755 -20.823557 -14.486799 0.901018 23.517433 1.890303 3.709324 61.868754 -3.257877 10.524011 -16.212727 17.892642 -6.679338 21.064088 15.622553 -12.782415 
-1.788804 0.597822 0.993357 90.510790 -2.290645 84.632609 -3.642637 -2.084692 6.375709 -1.773289 -10.924354 0.534197 2.169403 7.152845 -9.708290 0.000000 -0.000000 0.000000 0.529139 -3.389663 5.463784 -1.656512 0.215566 3.936053 1.949129 -7.071585 -11.377007 0.000000 -0.000000 0.000000 0.050545 3.045114 -1.031716 -0.699655 -2.670117 9.419590 -1.890331 -0.626697 -2.933502 -0.009865 2.457554 3.373058 4.659101 3.524704 2.954132 -27.493856 0.752050 2.966943 -53.817513 -2.823404 12.024637 7.316711 -24.292918 4.071626 -20.111796 -14.497818 0.832054 23.639347 1.798625 3.803668 61.587878 -3.065723 10.177193 -16.408366 18.239482 -7.384104 19.893853 16.035683 -12.210211 
-1.788731 0.597871 0.993275 90.725410 -2.325577 84.612110 -3.642017 -2.141484 6.343026 -1.825631 -11.033717 0.569059 2.218996 7.147046 -9.696584 0.000000 -0.000000 0.000000 0.503292 -3.462452 5.489236 -1.659945 0.212872 3.949456 1.927885 -7.122873 -11.367218 0.000000 -0.000000 0.000000 0.043066 3.138723 -1.073093 -0.708631 -2.637370 9.472633 -1.908175 -0.531909 -3.153886 -0.200896 2.402594 3.384614 4.579095 3.638404 4.042726 -27.364571 0.617911 3.145042 -53.713718 -3.020043 11.913546 7.499109 -24.226352 3.620405 -19.209681 -14.180116 0.379138 23.619438 1.897166 3.982777 61.382057 -2.764759 10.043943 -16.617822 18.394386 -7.913944 19.395888 16.168518 -12.468510 
-1.788726 0.598104 0.993222 90.975625 -2.320222 84.614992 -3.588418 -2.258553 6.245919 -1.888672 -11.025671 0.690293 2.161234 7.032183 -9.645883 0.000000 -0.000000 0.000000 0.515489 -3.467652 5.554474 -1.636551 0.092605 3.880175 1.826377 -7.290601 -11.377548 0.000000 -0.000000 0.000000 0.148419 3.151542 -1.045966 -0.765456 -2.526572 9.228293 -1.992181 -0.464147 -3.173560 -0.090678 2.256816 3.226814 4.460801 3.249841 5.639474 -27.523325 0.649562 3.316931 -53.165379 -3.376732 11.818081 7.413284 -24.527796 3.839087 -18.829215 -14.717961 0.395059 23.701720 1.836969 4.150677 61.060216 -2.584957 9.962715 -16.962667 19.112546 -8.364325 18.858371 16.357593 -12.835701 
-1.788821 0.598338 0.993393 91.245032 -2.329056 84.527342 -3.597603 -2.315528 6.236044 -1.898123 -11.056186 0.808036 2.137543 6.966603 -9.741394 0.000000 -0.000000 0.000000 0.475864 -3.581162 5.724179 -1.624593 -0.029509 3.777544 1.807947 -7.290256 -11.300913 0.000000 -0.000000 0.000000 0.184093 3.247159 -1.016642 -0.735127 -2.508109 9.182797 -2.031744 -0.489336 -3.155950 -0.076110 1.819985 3.549165 4.282111 2.802515 6.525244 -27.541501 0.567475 3.300049 -52.975141 -3.585874 11.892554 7.592425 -24.915508 3.546241 -18.360317 -14.508964 0.191945 23.628581 1.952557 4.020412 60.801890 -2.242023 9.993952 -17.194878 19.455484 -8.903385 18.590185 16.466267 -12.992582 
-1.788241 0.598143 0.993392 91.565701 -2.343368 84.522886 -3.576154 -2.332585 6.245853 -1.913478 -11.249094 0.816316 2.120680 6.793058 -9.669529 0.000000 -0.000000 0.000000 0.463468 -3.734311 5.834278 -1.649103 -0.204132 3.730433 1.816040 -7.361826 -11.387318 0.000000 -0.000000 0.000000 0.171856 3.302473 -1.133653 -0.741927 -2.575535 9.245985 -2.078085 -0.507171 -3.088214 -0.109198 1.960302 3.875468 4.396400 2.890357 5.862402 -27.364388 0.570260 2.971041 -52.888742 -3.754058 11.880123 7.555003 -25.423653 3.437020 -18.986054 -14.381803 0.036863 23.524831 1.924778 3.742662 60.628556 -1.882715 9.855898 -17.402653 20.079435 -9.385657 18.728307 16.672309 -12.843131 
-1.789010 0.598171 0.993323 91.579623 -2.427034 84.594600 -3.666172 -2.326120 6.037079 -1.923026 -11.255112 0.962823 2.132946 6.712215 -9.642643 0.000000 -0.000000 0.000000 0.383416 -3.614829 5.635883 -1.651035 -0.300680 3.885983 1.809459 -7.343873 -11.376710 0.000000 -0.000000 0.000000 0.256431 3.321691 -0.998716 -0.827051 -2.485548 9.236913 -2.189366 -0.360820 -3.144939 -0.011546 2.294569 3.782193 4.540263 2.983844 5.017572 -27.291117 0.414993 2.614639 -52.811687 -3.794963 11.950621 7.789126 -26.294310 3.211416 -18.654131 -14.380810 0.137667 23.495335 2.145741 3.646915 60.478463 -1.490666 9.601364 -18.061372 21.257927 -10.595008 18.300543 16.516922 -13.364464 
-1.789396 0.598160 0.993461 91.768036 -2.449061 84.588265 -3.690833 -2.376161 5.960295 -1.921767 -11.324378 1.047704 2.138183 6.647394 -9.612546 0.000000 -0.000000 0.000000 0.366805 -3.650834 5.631339 -1.661929 -0.431270 3.888379 1.778795 -7.384049 -11.414606 0.000000 -0.000000 0.000000 0.331974 3.363847 -0.514195 -0.907682 -2.360962 8.667066 -2.153746 -0.381915 -3.177091 -0.094505 2.135106 3.538062 4.624423 3.214111 4.978354 -27.243339 0.251585 2.680728 -52.884506 -3.798920 11.949349 7.935738 -26.844863 3.278575 -17.906003 -14.818575 -0.348802 23.388771 2.284730 3.658865 60.417383 -1.361915 9.484013 -18.278647 21.956050 -10.943088 17.639295 16.946901 -14.008758 
-1.789517 0.598475 0.993458 91.973687 -2.529526 84.680013 -3.800597 -2.433824 5.799692 -1.886713 -11.319635 1.128427 2.084574 6.533627 -9.626080 0.000000 -0.000000 0.000000 0.237040 -3.708281 5.553720 -1.623532 -0.643478 3.832825 1.745569 -7.313627 -11.300955 0.000000 -0.000000 0.000000 0.373561 3.436246 -0.569186 -0.965243 -2.367190 8.712950 -2.211971 -0.357111 -3.362384 -0.052710 1.782716 3.522383 4.501134 2.878195 4.896376 -27.231777 0.032253 2.775084 -52.950198 -3.935048 11.936959 8.004088 -27.164012 3.050033 -17.813231 -15.261756 -0.469343 23.210379 2.443899 3.713770 60.508322 -1.145021 9.324832 -18.430969 22.540543 -11.399753 17.267159 17.397928 -14.217361 
-1.789630 0.598624 0.993598 92.248135 -2.532241 84.779380 -3.829361 -2.586528 5.682973 -1.829750 -11.326978 1.090948 2.015729 6.407829 -9.544770 0.000000 -0.000000 0.000000 0.225559 -3.754327 5.487711 -1.601687 -0.773037 3.766489 1.768335 -7.314213 -11.316288 0.000000 -0.000000 0.000000 0.423809 3.423560 -0.580734 -0.982477 -2.395635 8.599430 -2.209664 -0.373381 -3.426525 -0.095075 1.652474 3.376967 4.415813 2.719172 4.611050 -27.192606 -0.186267 2.873975 -53.175414 -3.843320 12.117315 7.993026 -27.844889 3.044017 -18.147027 -15.395216 -0.839028 23.147679 2.710726 3.722292 60.444701 -1.035049 9.367476 -18.610506 23.011435 -11.730527 17.326893 17.662726 -14.383945 
